# xmcd
#
# Track frame offsets:
# 150
# 24377
# 39752
# 56702
# 71262
# 91955
# 107992
# 127652
# 142667
# 159927
# 174422
#
# Disc length: 2578 seconds
#
#
# Revision: 0
# Processed by: cddbd v1.4PL0 Copyright (c) Steve Scherf et al.
# Submitted via: FreeRIP 2.52 
#
DISCID=7a0a100b
DTITLE=D'OLEO - Soy como soy
DYEAR=1900
DGENRE=Latin
TTITLE0=YO PIERDO
TTITLE1=VELERO DE AMOR
TTITLE2=AQUEL PASADO
TTITLE3=SE FUE
TTITLE4=ANDANDO DE NOCHE SOLA
TTITLE5=REENCUENTRO
TTITLE6=ME FALTA TODO
TTITLE7=EL VIENTO ERES TU
TTITLE8=SOY COMO SOY
TTITLE9=ME DEJASTE
TTITLE10=LA RAZON
EXTD=
EXTT0=
EXTT1=
EXTT2=
EXTT3=
EXTT4=
EXTT5=
EXTT6=
EXTT7=
EXTT8=
EXTT9=
EXTT10=
PLAYORDER=
